<?xml version="1.0" standalone="no"?>
<!DOCTYPE svg PUBLIC "-//W3C//DTD SVG 20010904//EN"
 "http://www.w3.org/TR/2001/REC-SVG-20010904/DTD/svg10.dtd">
<svg version="1.0" xmlns="http://www.w3.org/2000/svg"
 width="1200.000000pt" height="1200.000000pt" viewBox="0 0 1200.000000 1200.000000"
 preserveAspectRatio="xMidYMid meet">

<g transform="translate(0.000000,1200.000000) scale(0.100000,-0.100000)"
fill="#000000" stroke="none">
<path d="M3710 7653 c-56 -9 -79 -25 -84 -57 -6 -34 -19 -908 -18 -1176 0 -91
1 -313 2 -493 2 -325 2 -328 -22 -375 -33 -67 -75 -92 -155 -92 -106 0 -147
33 -171 137 -13 59 -15 194 -13 1019 3 1082 7 1017 -73 1029 -76 12 -234 1
-251 -16 -14 -13 -16 -134 -15 -1013 0 -1100 -1 -1073 62 -1204 38 -77 141
-178 223 -216 84 -40 185 -59 275 -51 215 19 342 99 428 273 l47 95 -3 911
c-3 1172 -3 1163 -25 1204 l-18 32 -82 -1 c-45 -1 -93 -4 -107 -6z"/>
<path d="M4254 7650 c-12 -4 -24 -16 -28 -26 -8 -20 12 -1158 23 -1339 4 -66
4 -138 -1 -160 -4 -22 -7 -237 -8 -478 l0 -437 33 -21 c28 -18 43 -20 129 -15
103 5 133 15 142 43 6 23 12 1135 7 1443 -3 226 5 290 23 185 12 -71 85 -396
92 -406 3 -5 12 -9 20 -9 8 0 14 -4 14 -10 0 -5 -7 -10 -15 -10 -16 0 -16 -1
1 -77 3 -16 10 -50 14 -78 8 -47 84 -457 116 -630 9 -44 22 -120 29 -170 34
-219 47 -257 95 -274 70 -24 150 -7 169 36 7 14 14 62 17 107 3 54 11 90 24
111 12 20 39 151 85 410 36 209 72 414 80 455 17 91 29 172 55 350 23 166 39
240 50 240 16 0 21 -39 10 -81 -9 -32 -9 -100 0 -273 7 -127 13 -400 14 -607
1 -284 4 -380 13 -391 11 -12 10 -21 -3 -47 -12 -25 -15 -57 -12 -150 4 -160
5 -161 145 -161 108 0 154 13 167 45 3 9 4 197 1 418 -6 409 -10 583 -26 1107
-4 162 -9 309 -9 325 0 17 2 140 6 274 7 267 4 282 -49 301 -38 13 -332 13
-357 0 -33 -18 -37 -36 -140 -680 -17 -102 -39 -234 -50 -295 -11 -60 -24
-146 -30 -190 -17 -140 -51 -358 -66 -430 -8 -38 -14 -73 -14 -77 0 -5 -6 -8
-13 -8 -8 0 -38 130 -94 408 -188 933 -243 1199 -255 1226 -19 47 -58 56 -230
55 -84 0 -162 -4 -174 -9z m736 -2094 c0 -3 -4 -8 -10 -11 -5 -3 -10 -1 -10 4
0 6 5 11 10 11 6 0 10 -2 10 -4z"/>
<path d="M7215 7453 l-80 -158 -5 -665 -5 -665 -32 -3 c-32 -3 -33 -4 -33 -53
l0 -49 -90 0 -90 0 0 -35 0 -35 175 0 175 0 0 -200 c0 -200 0 -201 24 -225
l25 -25 -22 -11 c-37 -19 -57 -52 -57 -95 0 -72 69 -117 136 -89 83 34 86 143
6 184 l-23 12 23 19 c22 18 23 23 26 224 l3 206 170 0 169 0 0 35 0 35 -85 0
-85 0 0 50 0 50 -35 0 -35 0 0 660 0 660 -82 165 c-46 91 -85 165 -88 165 -3
0 -41 -71 -85 -157z m113 -2209 c4 -25 -20 -47 -42 -38 -16 6 -22 45 -9 58 14
14 48 1 51 -20z"/>
<path d="M3817 4712 c-10 -10 -17 -23 -17 -29 0 -13 33 -43 48 -43 15 0 42 29
42 45 0 17 -27 45 -44 45 -7 0 -20 -8 -29 -18z"/>
<path d="M4430 4716 c-28 -35 11 -93 48 -70 35 22 22 84 -18 84 -10 0 -23 -7
-30 -14z"/>
<path d="M6697 4712 c-10 -10 -17 -23 -17 -29 0 -13 33 -43 48 -43 15 0 42 29
42 45 0 17 -27 45 -44 45 -7 0 -20 -8 -29 -18z"/>
<path d="M8410 4525 l0 -205 30 0 30 0 0 205 0 205 -30 0 -30 0 0 -205z"/>
<path d="M1800 4520 l0 -200 35 0 35 0 0 80 0 80 75 0 75 0 0 30 0 30 -75 0
-75 0 0 60 0 60 90 0 90 0 0 30 0 30 -125 0 -125 0 0 -200z"/>
<path d="M3230 4520 l0 -200 35 0 35 0 0 90 c0 89 0 90 25 90 20 0 39 -19 92
-90 65 -86 69 -90 106 -90 45 0 48 -8 -48 120 l-72 95 64 75 c91 108 92 110
45 110 -36 0 -42 -5 -105 -85 -44 -56 -74 -85 -87 -85 -18 0 -20 7 -20 85 l0
85 -35 0 -35 0 0 -200z"/>
<path d="M5330 4520 l0 -200 115 0 115 0 0 30 0 30 -80 0 -80 0 0 170 0 170
-35 0 -35 0 0 -200z"/>
<path d="M6444 4706 c-43 -19 -64 -53 -64 -104 0 -52 28 -82 92 -101 24 -7 53
-19 66 -27 26 -17 29 -55 6 -78 -20 -20 -84 -21 -110 -1 -26 20 -51 19 -63 -4
-12 -22 -2 -33 52 -56 99 -41 207 16 207 111 0 47 -32 79 -110 109 -76 29 -94
53 -64 86 19 22 56 24 103 8 27 -10 36 -9 48 4 19 19 10 35 -33 53 -42 17 -90
17 -130 0z"/>
<path d="M7940 4567 c0 -174 -5 -187 -74 -187 -35 0 -37 -2 -34 -27 3 -24 8
-28 40 -31 52 -4 103 20 124 60 15 26 19 64 22 186 l4 152 -41 0 -41 0 0 -153z"/>
<path d="M9055 4710 c-27 -11 -61 -49 -74 -82 -9 -24 -7 -27 17 -33 20 -5 30
-2 37 11 34 59 92 73 121 29 28 -43 -1 -98 -101 -194 -51 -48 -85 -89 -85
-101 0 -19 7 -20 136 -20 l135 0 -3 28 -3 27 -83 0 c-45 0 -82 2 -82 5 0 3 30
35 66 70 36 36 72 77 80 92 19 36 18 98 -2 127 -30 42 -108 62 -159 41z"/>
<path d="M9370 4703 c-53 -27 -80 -89 -80 -183 0 -59 5 -86 23 -120 52 -104
180 -104 242 1 16 27 20 52 20 119 0 67 -4 92 -20 119 -42 71 -119 98 -185 64z
m97 -41 c23 -14 43 -81 43 -142 0 -61 -20 -128 -43 -142 -22 -14 -64 -8 -80
10 -10 10 -22 44 -28 75 -14 66 0 158 28 189 16 18 58 24 80 10z"/>
<path d="M9703 4705 c-31 -13 -73 -66 -73 -91 0 -7 10 -14 23 -18 17 -5 28 2
50 29 64 78 150 16 103 -73 -8 -15 -53 -65 -100 -112 -47 -46 -86 -93 -86
-102 0 -16 12 -18 135 -18 l135 0 0 31 0 31 -84 -3 -85 -4 68 70 c38 39 75 84
85 102 56 109 -53 210 -171 158z"/>
<path d="M10025 4704 c-36 -18 -64 -52 -65 -76 0 -28 48 -23 72 7 35 44 118
27 118 -25 0 -23 -36 -50 -67 -50 -18 0 -23 -6 -23 -24 0 -20 6 -24 39 -30 46
-7 52 -14 53 -58 2 -67 -80 -92 -125 -38 -26 30 -41 35 -71 24 -14 -5 -14 -9
-2 -32 24 -46 62 -74 108 -79 121 -14 206 110 129 188 l-30 29 25 25 c26 26
32 72 13 107 -23 43 -118 61 -174 32z"/>
<path d="M4234 4651 c-5 -31 -12 -41 -30 -45 -30 -8 -34 -46 -5 -46 17 0 19
-10 23 -101 3 -92 5 -103 27 -120 26 -21 56 -24 96 -9 21 8 24 13 16 27 -5 10
-21 17 -38 18 l-28 0 -3 93 -3 92 71 0 70 0 0 -120 0 -120 30 0 30 0 0 145 0
145 -100 0 -100 0 0 40 c0 36 -3 40 -25 40 -21 0 -26 -6 -31 -39z"/>
<path d="M2080 4466 l0 -146 35 0 35 0 0 93 c0 104 9 122 65 129 26 3 30 8 33
36 3 28 0 32 -22 32 -13 0 -38 -11 -55 -25 l-30 -26 -3 23 c-2 17 -11 24 -30
26 l-28 3 0 -145z"/>
<path d="M2341 4592 c-94 -50 -94 -204 0 -254 97 -52 209 16 209 127 0 81 -62
145 -140 145 -19 0 -51 -8 -69 -18z m115 -46 c15 -12 19 -27 19 -81 0 -74 -15
-95 -67 -95 -46 0 -68 31 -68 95 0 42 5 60 20 75 23 23 68 26 96 6z"/>
<path d="M2610 4465 l0 -145 30 0 30 0 0 103 c0 115 10 137 64 137 36 0 46
-30 46 -146 l0 -94 30 0 30 0 0 98 c0 107 13 142 54 142 40 0 46 -18 46 -132
l0 -108 35 0 35 0 0 108 c0 88 -3 113 -20 139 -27 44 -80 54 -133 25 -39 -22
-39 -22 -65 -2 -30 24 -53 25 -92 5 -25 -13 -29 -13 -34 0 -3 8 -17 15 -31 15
l-25 0 0 -145z"/>
<path d="M3600 4466 l0 -146 35 0 35 0 0 93 c0 104 9 122 65 129 26 3 30 8 33
36 3 28 0 32 -22 32 -13 0 -38 -11 -55 -25 l-30 -26 -3 23 c-2 17 -11 24 -30
26 l-28 3 0 -145z"/>
<path d="M3810 4465 l0 -145 35 0 35 0 0 145 0 145 -35 0 -35 0 0 -145z"/>
<path d="M3994 4596 c-17 -8 -36 -26 -43 -43 -18 -45 1 -77 63 -103 70 -30 78
-38 65 -61 -11 -22 -54 -25 -94 -7 -22 10 -28 9 -36 -3 -14 -23 -11 -29 26
-45 71 -29 146 -6 165 52 16 48 -5 77 -72 102 -43 16 -53 24 -53 43 0 20 6 25
32 27 18 2 41 -1 51 -7 13 -7 22 -7 30 1 19 19 14 28 -23 44 -42 17 -71 17
-111 0z"/>
<path d="M4570 4465 l0 -145 30 0 30 0 0 104 c0 97 2 106 22 120 32 22 64 20
82 -6 12 -17 16 -48 16 -120 l0 -98 31 0 31 0 -4 121 c-3 118 -4 121 -31 145
-32 27 -79 31 -117 9 -32 -18 -40 -18 -40 0 0 9 -9 15 -25 15 l-25 0 0 -145z"/>
<path d="M4944 4596 c-51 -23 -74 -61 -74 -125 0 -70 26 -116 77 -138 45 -18
111 -13 149 12 24 15 25 18 11 33 -13 13 -21 13 -42 4 -29 -13 -64 -15 -90 -6
-16 6 -45 54 -45 74 0 6 35 10 95 10 l95 0 0 38 c0 86 -89 136 -176 98z m98
-48 c8 -7 18 -21 21 -30 6 -16 -1 -18 -64 -18 -69 0 -70 0 -58 23 7 12 17 25
23 29 17 12 61 9 78 -4z"/>
<path d="M5661 4592 c-54 -27 -75 -64 -75 -128 1 -64 22 -99 75 -127 40 -21
117 -17 156 9 23 14 24 18 10 31 -12 13 -21 13 -48 4 -17 -6 -43 -11 -56 -11
-29 0 -73 42 -73 70 0 19 6 20 95 20 l95 0 0 33 c0 17 -6 43 -13 57 -14 29
-70 60 -107 60 -14 0 -40 -8 -59 -18z m100 -42 c10 -6 19 -20 19 -30 0 -18 -7
-20 -65 -20 -69 0 -78 7 -45 40 22 22 60 26 91 10z"/>
<path d="M6690 4465 l0 -145 35 0 35 0 0 145 0 145 -35 0 -35 0 0 -145z"/>
<path d="M6840 4465 l0 -145 30 0 30 0 0 104 c0 97 2 106 22 120 32 22 64 20
82 -6 12 -17 16 -48 16 -120 l0 -98 31 0 31 0 -4 121 c-3 118 -4 121 -31 145
-32 27 -79 31 -117 9 -32 -18 -40 -18 -40 0 0 9 -9 15 -25 15 l-25 0 0 -145z"/>
<path d="M7215 4596 c-57 -25 -70 -50 -70 -133 0 -72 1 -76 32 -104 18 -16 44
-31 58 -35 56 -14 155 29 128 56 -8 9 -19 9 -45 0 -51 -19 -86 -6 -104 37 -39
91 29 174 107 132 15 -7 24 -7 35 2 21 17 18 25 -20 43 -41 19 -80 20 -121 2z"/>
<path d="M7471 4592 c-116 -62 -80 -247 52 -269 49 -8 130 22 125 46 -4 17
-14 17 -94 5 -36 -5 -44 -3 -63 21 -11 15 -21 36 -21 46 0 17 9 19 95 19 l95
0 0 26 c0 95 -102 152 -189 106z m111 -49 c35 -32 23 -43 -47 -43 -69 0 -79 8
-48 42 20 22 70 23 95 1z"/>
<path d="M8090 4494 c0 -114 0 -116 29 -145 33 -33 64 -36 117 -14 31 13 36
13 41 0 3 -8 16 -15 29 -15 l24 0 0 145 0 145 -30 0 -30 0 0 -104 c0 -97 -2
-106 -22 -120 -29 -20 -62 -20 -82 0 -13 12 -16 38 -16 120 l0 104 -30 0 -30
0 0 -116z"/>
<path d="M8520 4601 c0 -5 25 -65 56 -134 l56 -125 -26 -50 c-14 -28 -26 -54
-26 -57 0 -4 14 -5 32 -3 30 3 33 7 110 186 43 101 78 186 78 189 0 2 -15 3
-32 1 -31 -3 -34 -7 -66 -90 -19 -49 -37 -86 -41 -83 -4 2 -20 37 -36 77 -15
40 -32 79 -38 86 -11 14 -67 17 -67 3z"/>
<path d="M6030 4485 c0 -24 2 -25 70 -25 68 0 70 1 70 25 0 24 -2 25 -70 25
-68 0 -70 -1 -70 -25z"/>
</g>
</svg>
