<?xml version="1.0" standalone="no"?>
<!DOCTYPE svg PUBLIC "-//W3C//DTD SVG 20010904//EN"
 "http://www.w3.org/TR/2001/REC-SVG-20010904/DTD/svg10.dtd">
<svg version="1.0" xmlns="http://www.w3.org/2000/svg"
 width="1200.000000pt" height="1200.000000pt" viewBox="0 0 1200.000000 1200.000000"
 preserveAspectRatio="xMidYMid meet">

<g transform="translate(0.000000,1200.000000) scale(0.100000,-0.100000)"
fill="#000000" stroke="none">
<path d="M3710 7653 c-56 -9 -79 -25 -84 -57 -6 -34 -19 -895 -18 -1171 0 -93
1 -318 2 -498 1 -325 1 -329 -22 -375 -33 -67 -75 -92 -155 -92 -106 0 -147
33 -171 137 -13 59 -15 194 -13 1019 3 1082 7 1017 -73 1029 -77 12 -234 1
-251 -16 -14 -14 -16 -132 -15 -1014 0 -1099 -1 -1072 62 -1203 38 -77 141
-178 223 -216 155 -74 352 -69 511 12 80 41 141 108 192 210 l47 95 -2 1006
c-2 553 -5 1026 -9 1051 -3 25 -12 55 -20 68 -13 20 -22 22 -97 21 -45 -1 -93
-4 -107 -6z"/>
<path d="M4254 7650 c-12 -4 -24 -16 -28 -26 -8 -20 12 -1174 23 -1344 4 -63
4 -133 -1 -155 -4 -22 -7 -237 -8 -478 l0 -437 33 -21 c28 -18 43 -20 129 -15
103 5 133 15 142 43 6 22 12 1125 8 1443 -3 227 4 290 21 185 9 -50 30 -150
69 -319 16 -68 25 -90 39 -93 23 -6 25 -23 4 -23 -11 0 -14 -7 -10 -22 4 -20
57 -307 100 -548 9 -47 20 -105 25 -130 15 -71 40 -216 50 -283 17 -117 31
-179 45 -207 34 -65 185 -67 214 -3 7 14 14 61 17 105 3 57 12 91 29 125 14
25 25 55 25 66 0 17 84 504 134 782 18 99 31 182 56 355 23 166 39 240 50 240
16 0 21 -41 9 -77 -9 -28 -9 -89 1 -277 7 -133 13 -408 14 -612 1 -282 4 -375
14 -386 10 -12 9 -21 -3 -44 -11 -21 -15 -61 -15 -145 0 -103 2 -119 21 -143
20 -25 24 -26 125 -26 109 0 155 13 168 46 6 16 -1 737 -10 1049 -28 926 -26
777 -18 1074 7 267 4 282 -49 301 -39 13 -332 13 -357 0 -24 -13 -44 -81 -65
-225 -9 -60 -20 -123 -25 -140 -4 -16 -11 -52 -14 -80 -8 -59 -60 -385 -81
-500 -18 -99 -27 -161 -60 -395 -14 -102 -33 -216 -41 -255 -7 -38 -14 -73
-14 -77 0 -5 -6 -8 -13 -8 -8 0 -39 133 -95 413 -190 942 -242 1193 -253 1220
-21 49 -51 57 -226 56 -87 0 -167 -4 -179 -9z m736 -2094 c0 -3 -4 -8 -10 -11
-5 -3 -10 -1 -10 4 0 6 5 11 10 11 6 0 10 -2 10 -4z"/>
<path d="M7215 7453 l-80 -158 -5 -665 -5 -665 -32 -3 c-32 -3 -33 -4 -33 -53
l0 -49 -90 0 -90 0 0 -35 0 -35 175 0 175 0 0 -200 c0 -201 0 -201 25 -226
l25 -25 -23 -8 c-59 -22 -77 -118 -32 -164 32 -31 71 -39 111 -22 82 34 86
143 7 184 l-22 11 25 25 c24 24 24 25 24 225 l0 200 170 0 170 0 0 35 0 35
-85 0 -85 0 0 50 0 50 -35 0 -35 0 0 660 0 660 -82 165 c-46 91 -85 165 -88
165 -3 0 -41 -71 -85 -157z m113 -2209 c4 -25 -20 -47 -42 -38 -16 6 -22 45
-9 58 14 14 48 1 51 -20z"/>
<path d="M3817 4712 c-10 -10 -17 -23 -17 -29 0 -13 33 -43 48 -43 15 0 42 29
42 45 0 17 -27 45 -44 45 -7 0 -20 -8 -29 -18z"/>
<path d="M4430 4716 c-28 -35 11 -93 48 -70 35 22 22 84 -18 84 -10 0 -23 -7
-30 -14z"/>
<path d="M6697 4712 c-10 -10 -17 -23 -17 -29 0 -13 33 -43 48 -43 15 0 42 29
42 45 0 17 -27 45 -44 45 -7 0 -20 -8 -29 -18z"/>
<path d="M8410 4525 l0 -205 30 0 30 0 0 205 0 205 -30 0 -30 0 0 -205z"/>
<path d="M1800 4520 l0 -200 35 0 35 0 0 80 0 80 75 0 75 0 0 30 0 30 -75 0
-75 0 0 60 0 60 90 0 90 0 0 30 0 30 -125 0 -125 0 0 -200z"/>
<path d="M3230 4520 l0 -200 35 0 35 0 0 90 c0 88 0 90 24 90 19 0 40 -20 93
-90 64 -85 70 -90 106 -90 20 0 37 3 37 8 -1 4 -36 52 -79 107 l-78 99 66 81
c91 108 89 105 44 105 -37 0 -43 -4 -106 -85 -44 -56 -74 -85 -87 -85 -18 0
-20 7 -20 85 l0 85 -35 0 -35 0 0 -200z"/>
<path d="M5330 4520 l0 -200 120 0 120 0 0 30 0 30 -85 0 -85 0 0 170 0 170
-35 0 -35 0 0 -200z"/>
<path d="M6444 4706 c-43 -19 -64 -53 -64 -101 0 -55 21 -80 83 -100 73 -24
97 -41 97 -70 0 -51 -63 -72 -124 -40 -38 20 -53 19 -65 -4 -12 -22 -2 -33 52
-56 99 -41 207 16 207 111 0 47 -32 79 -109 109 -76 29 -89 46 -66 81 17 27
52 31 104 13 27 -10 36 -9 48 4 19 19 10 35 -33 53 -42 17 -90 17 -130 0z"/>
<path d="M7940 4567 c0 -174 -5 -187 -74 -187 -35 0 -37 -2 -34 -27 3 -24 8
-28 40 -31 52 -4 103 20 125 60 14 27 18 62 21 186 l4 152 -41 0 -41 0 0 -153z"/>
<path d="M9043 4704 c-19 -10 -40 -32 -52 -57 l-21 -42 27 -9 c22 -7 29 -5 38
9 34 60 92 74 121 30 28 -43 -1 -100 -102 -193 -55 -52 -84 -87 -84 -101 0
-20 4 -21 136 -21 l135 0 -3 28 -3 27 -83 0 c-45 0 -82 2 -82 5 0 3 30 35 66
70 77 76 94 105 94 157 0 90 -98 140 -187 97z"/>
<path d="M9370 4702 c-24 -11 -43 -32 -58 -64 -46 -93 -23 -250 42 -293 44
-29 106 -30 145 -3 59 39 76 80 76 178 0 97 -18 139 -75 177 -40 27 -83 29
-130 5z m114 -65 c18 -24 21 -43 21 -117 0 -74 -3 -93 -21 -117 -26 -35 -73
-42 -97 -15 -40 44 -40 220 0 264 24 27 71 20 97 -15z"/>
<path d="M9703 4705 c-31 -13 -73 -66 -73 -91 0 -7 10 -14 23 -18 17 -5 28 2
50 29 64 78 150 16 103 -73 -8 -15 -53 -65 -100 -112 -47 -46 -86 -93 -86
-102 0 -16 13 -18 140 -18 127 0 140 2 140 18 0 39 -14 44 -98 41 l-81 -4 68
70 c38 38 75 84 85 102 56 109 -53 210 -171 158z"/>
<path d="M10025 4704 c-36 -18 -64 -52 -65 -76 0 -27 45 -22 74 7 42 42 116
26 116 -25 0 -23 -36 -50 -67 -50 -18 0 -23 -6 -23 -25 0 -19 5 -25 23 -25 39
0 67 -27 67 -65 0 -66 -79 -88 -123 -35 -26 30 -41 35 -71 24 -14 -5 -14 -9
-2 -32 24 -46 62 -74 108 -79 121 -14 206 110 129 188 l-30 29 25 25 c26 26
32 72 13 107 -23 43 -118 61 -174 32z"/>
<path d="M4234 4651 c-5 -31 -12 -41 -30 -45 -30 -8 -34 -46 -4 -46 19 0 20
-7 20 -95 0 -88 2 -98 25 -120 26 -27 57 -31 100 -15 21 8 24 13 16 27 -5 10
-21 17 -38 18 l-28 0 -3 93 -3 92 66 0 65 0 0 -120 0 -120 35 0 35 0 0 145 0
145 -100 0 -100 0 0 40 c0 36 -3 40 -25 40 -21 0 -26 -6 -31 -39z"/>
<path d="M2080 4466 l0 -146 35 0 35 0 0 93 c0 106 11 127 68 127 30 0 32 2
32 35 0 30 -3 35 -24 35 -14 0 -38 -11 -55 -25 l-30 -26 -3 23 c-2 17 -11 24
-30 26 l-28 3 0 -145z"/>
<path d="M2340 4592 c-93 -49 -92 -204 1 -254 97 -52 209 16 209 127 0 111
-111 179 -210 127z m114 -48 c22 -21 30 -57 23 -107 -6 -46 -27 -67 -69 -67
-46 0 -68 31 -68 95 0 42 5 60 20 75 24 24 72 26 94 4z"/>
<path d="M2610 4465 l0 -145 35 0 35 0 0 108 c0 113 6 132 45 132 44 0 50 -13
53 -130 l4 -110 29 0 29 0 0 98 c0 107 13 142 54 142 40 0 46 -18 46 -132 l0
-108 35 0 35 0 0 108 c0 88 -3 113 -20 139 -27 44 -80 54 -133 25 -39 -22 -39
-22 -65 -2 -30 24 -53 25 -92 5 -25 -13 -29 -13 -34 0 -3 8 -17 15 -31 15
l-25 0 0 -145z"/>
<path d="M3600 4466 l0 -146 35 0 35 0 0 93 c0 106 11 127 68 127 30 0 32 2
32 35 0 30 -3 35 -24 35 -14 0 -38 -11 -55 -25 l-30 -26 -3 23 c-2 17 -11 24
-30 26 l-28 3 0 -145z"/>
<path d="M3810 4465 l0 -145 35 0 35 0 0 145 0 145 -35 0 -35 0 0 -145z"/>
<path d="M3984 4591 c-68 -42 -51 -113 36 -146 46 -18 55 -25 55 -45 0 -23 -4
-25 -40 -24 -22 1 -50 4 -61 8 -16 6 -23 3 -28 -10 -15 -38 68 -65 136 -45 31
10 43 20 55 49 22 52 4 80 -67 109 -45 17 -55 26 -55 45 0 19 6 24 32 26 18 2
41 -1 51 -7 13 -7 22 -7 30 1 18 18 15 26 -18 43 -39 20 -89 19 -126 -4z"/>
<path d="M4560 4465 l0 -145 35 0 35 0 0 104 c0 97 2 106 22 120 27 19 59 21
76 4 8 -8 12 -49 12 -120 l0 -108 35 0 35 0 0 116 c0 114 0 116 -29 145 -33
33 -79 38 -121 14 -32 -18 -40 -18 -40 0 0 10 -10 15 -30 15 l-30 0 0 -145z"/>
<path d="M4941 4592 c-52 -26 -73 -61 -73 -121 0 -96 62 -156 154 -148 26 2
59 12 74 21 24 16 25 19 11 34 -13 13 -21 13 -42 4 -29 -13 -64 -15 -90 -6
-16 6 -45 54 -45 74 0 6 35 10 94 10 106 0 114 5 93 67 -14 44 -66 83 -111 83
-17 0 -46 -8 -65 -18z m101 -44 c8 -7 18 -21 21 -30 6 -16 -1 -18 -64 -18 -69
0 -70 0 -58 23 7 12 17 25 23 29 17 12 61 9 78 -4z"/>
<path d="M5653 4590 c-48 -29 -67 -65 -67 -126 0 -62 22 -99 75 -127 40 -21
117 -17 156 9 23 14 24 18 10 31 -12 13 -21 13 -48 4 -65 -23 -112 -4 -125 52
l-6 27 96 0 96 0 0 38 c0 90 -105 142 -187 92z m111 -46 c33 -32 20 -44 -49
-44 -69 0 -78 7 -45 40 24 24 72 26 94 4z"/>
<path d="M6690 4465 l0 -145 35 0 35 0 0 145 0 145 -35 0 -35 0 0 -145z"/>
<path d="M6830 4465 l0 -145 35 0 35 0 0 104 c0 97 2 106 22 120 27 19 59 21
76 4 8 -8 12 -49 12 -120 l0 -108 35 0 35 0 0 116 c0 114 0 116 -29 145 -33
33 -79 38 -121 14 -32 -18 -40 -18 -40 0 0 10 -10 15 -30 15 l-30 0 0 -145z"/>
<path d="M7215 4596 c-42 -18 -62 -44 -73 -91 -24 -112 50 -200 152 -181 42 8
82 38 72 54 -9 15 -43 16 -51 2 -8 -13 -51 -13 -75 0 -25 13 -43 71 -34 115
10 56 64 81 115 54 15 -7 24 -7 35 2 22 18 17 29 -21 45 -42 17 -80 17 -120 0z"/>
<path d="M7471 4592 c-41 -22 -71 -74 -71 -122 0 -76 67 -150 136 -150 49 0
116 29 112 49 -4 17 -14 17 -94 5 -36 -5 -44 -3 -63 21 -11 15 -21 36 -21 46
0 17 9 19 95 19 l95 0 0 26 c0 97 -101 153 -189 106z m111 -49 c35 -32 23 -43
-47 -43 -71 0 -85 15 -43 44 29 21 67 20 90 -1z"/>
<path d="M8090 4494 c0 -114 0 -116 29 -145 33 -33 64 -36 117 -14 31 13 36
13 41 0 3 -8 16 -15 29 -15 l24 0 0 145 0 145 -30 0 -30 0 0 -104 c0 -97 -2
-106 -22 -120 -29 -20 -62 -20 -82 0 -13 12 -16 38 -16 120 l0 104 -30 0 -30
0 0 -116z"/>
<path d="M8520 4601 c0 -5 25 -65 56 -134 l56 -125 -26 -50 c-14 -28 -26 -54
-26 -57 0 -4 14 -5 32 -3 30 3 33 7 110 186 43 101 78 186 78 189 0 2 -14 3
-32 1 -31 -3 -34 -8 -67 -90 -19 -48 -37 -85 -41 -83 -3 2 -19 37 -35 77 -15
40 -32 79 -38 86 -11 14 -67 17 -67 3z"/>
<path d="M6030 4485 c0 -24 2 -25 75 -25 73 0 75 1 75 25 0 24 -2 25 -75 25
-73 0 -75 -1 -75 -25z"/>
</g>
</svg>
