<?xml version="1.0" standalone="no"?>
<!DOCTYPE svg PUBLIC "-//W3C//DTD SVG 20010904//EN"
 "http://www.w3.org/TR/2001/REC-SVG-20010904/DTD/svg10.dtd">
<svg version="1.0" xmlns="http://www.w3.org/2000/svg"
 width="1200.000000pt" height="1200.000000pt" viewBox="0 0 1200.000000 1200.000000"
 preserveAspectRatio="xMidYMid meet">

<g transform="translate(0.000000,1200.000000) scale(0.100000,-0.100000)"
fill="#000000" stroke="none">
<path d="M3702 7651 c-81 -14 -76 22 -86 -559 -9 -534 -10 -600 -5 -1157 2
-313 1 -333 -18 -375 -33 -74 -62 -94 -144 -98 -80 -5 -118 8 -153 49 -48 57
-50 93 -47 1100 3 914 0 1006 -28 1023 -18 12 -282 8 -296 -4 -23 -19 -21
-1970 1 -2079 23 -109 70 -196 147 -267 106 -99 210 -139 362 -137 254 2 420
119 498 353 17 52 18 97 12 950 -8 1193 -6 1138 -28 1178 l-18 32 -77 -1 c-42
-1 -96 -5 -120 -8z"/>
<path d="M4254 7650 c-12 -4 -24 -16 -28 -25 -7 -19 12 -1133 23 -1325 4 -74
4 -153 0 -175 -5 -22 -8 -237 -9 -478 l0 -437 33 -21 c28 -18 43 -20 129 -15
103 5 134 15 142 43 6 23 12 1105 8 1425 -4 237 3 305 21 208 16 -87 80 -375
88 -397 5 -13 15 -23 24 -23 8 0 15 -4 15 -10 0 -5 -7 -10 -16 -10 -10 0 -14
-6 -10 -17 5 -15 22 -107 56 -303 5 -25 30 -157 55 -295 26 -137 51 -284 57
-325 5 -41 14 -89 19 -106 5 -17 9 -39 9 -50 0 -11 7 -41 16 -66 17 -52 56
-78 117 -78 88 0 113 31 122 150 4 56 13 95 25 115 10 17 29 93 44 175 14 80
35 199 46 265 25 139 27 152 74 425 19 113 38 230 41 260 20 164 53 330 65
330 16 0 21 -39 10 -81 -9 -32 -9 -97 0 -258 7 -119 13 -392 14 -607 1 -302 5
-395 14 -407 11 -13 10 -21 -3 -47 -13 -26 -16 -56 -13 -152 4 -155 7 -158
150 -158 99 0 150 13 161 42 5 13 -1 709 -8 1008 -3 91 -7 305 -10 475 -4 182
-10 319 -17 331 -7 15 -7 43 1 92 15 95 14 453 0 486 -7 14 -25 30 -42 36 -44
15 -339 13 -359 -2 -21 -16 -43 -95 -63 -228 -9 -58 -20 -121 -25 -140 -5 -19
-14 -73 -20 -120 -6 -47 -20 -134 -31 -195 -11 -60 -24 -139 -29 -175 -5 -36
-18 -114 -28 -175 -11 -60 -27 -166 -36 -235 -23 -171 -56 -368 -67 -398 -6
-14 -13 -21 -18 -16 -5 5 -38 158 -74 339 -148 739 -248 1223 -263 1273 -21
75 -42 82 -236 81 -84 0 -162 -4 -174 -9z m731 -2089 c3 -5 1 -12 -5 -16 -5
-3 -10 1 -10 9 0 18 6 21 15 7z"/>
<path d="M7215 7453 l-80 -158 -5 -665 -5 -665 -32 -3 c-32 -3 -33 -4 -33 -53
l0 -49 -90 0 -90 0 0 -35 0 -35 175 0 175 0 0 -200 0 -201 25 -25 c29 -29 31
-34 10 -34 -31 0 -65 -50 -65 -95 0 -97 127 -134 184 -54 34 49 10 128 -46
149 -32 11 -32 12 -10 21 12 4 27 20 32 34 6 15 10 112 10 216 l0 189 170 0
170 0 0 35 0 35 -85 0 -85 0 0 50 0 50 -35 0 -35 0 0 660 0 660 -82 165 c-46
91 -85 165 -88 165 -3 0 -41 -71 -85 -157z m110 -2212 c0 -34 -32 -52 -50 -27
-19 25 -2 58 28 54 16 -2 22 -10 22 -27z"/>
<path d="M3816 4708 c-13 -19 -14 -25 -2 -43 18 -26 40 -30 60 -10 20 21 20
39 0 59 -21 22 -40 20 -58 -6z"/>
<path d="M4430 4716 c-28 -35 11 -93 48 -70 35 22 22 84 -18 84 -10 0 -23 -7
-30 -14z"/>
<path d="M6696 4708 c-13 -19 -14 -25 -2 -43 18 -26 40 -30 60 -10 20 21 20
39 0 59 -21 22 -40 20 -58 -6z"/>
<path d="M8410 4525 l0 -205 30 0 30 0 0 205 0 205 -30 0 -30 0 0 -205z"/>
<path d="M1800 4520 l0 -200 35 0 35 0 0 80 0 80 75 0 75 0 0 30 0 30 -75 0
-75 0 0 60 0 60 90 0 90 0 0 30 0 30 -125 0 -125 0 0 -200z"/>
<path d="M3230 4520 l0 -200 35 0 35 0 0 90 c0 89 0 90 25 90 20 0 39 -19 92
-90 64 -86 69 -90 106 -90 45 0 47 -3 -51 125 l-69 90 75 90 75 90 -31 3 c-43
4 -50 -1 -121 -90 -40 -51 -68 -78 -81 -78 -18 0 -20 7 -20 85 l0 85 -35 0
-35 0 0 -200z"/>
<path d="M5330 4520 l0 -200 115 0 115 0 0 30 0 30 -80 0 -80 0 0 170 0 170
-35 0 -35 0 0 -200z"/>
<path d="M6444 4706 c-43 -19 -64 -53 -64 -102 0 -51 30 -85 92 -103 66 -19
88 -37 88 -71 0 -19 -7 -33 -19 -40 -28 -15 -84 -12 -107 5 -27 20 -47 19 -62
-5 -11 -18 -9 -22 20 -40 76 -46 173 -33 215 29 51 75 16 143 -91 177 -70 22
-91 51 -60 85 15 16 27 20 59 16 22 -2 50 -8 62 -12 16 -5 24 -2 32 14 10 17
8 23 -13 36 -34 22 -114 28 -152 11z"/>
<path d="M7940 4567 c0 -174 -5 -187 -73 -187 -32 0 -37 -3 -37 -24 0 -61 131
-41 166 26 15 26 19 64 22 186 l4 152 -41 0 -41 0 0 -153z"/>
<path d="M9055 4706 c-36 -16 -60 -41 -74 -79 -8 -21 -8 -27 3 -27 8 0 21 -3
30 -6 11 -4 19 2 25 19 20 51 89 64 117 22 28 -43 10 -79 -92 -185 -52 -53
-94 -104 -94 -113 0 -15 16 -17 136 -17 l135 0 -3 28 -3 27 -83 0 c-45 0 -82
2 -82 5 0 3 30 35 66 70 77 76 94 105 94 157 0 47 -22 81 -66 99 -41 17 -70
17 -109 0z"/>
<path d="M9370 4703 c-53 -27 -80 -89 -80 -183 0 -59 5 -86 23 -120 52 -104
180 -104 242 1 16 27 20 52 20 119 0 67 -4 92 -20 119 -42 71 -119 98 -185 64z
m105 -50 c26 -26 35 -59 35 -133 0 -103 -25 -150 -79 -150 -38 0 -59 27 -73
94 -14 65 0 156 28 187 21 23 67 24 89 2z"/>
<path d="M9703 4705 c-31 -13 -73 -66 -73 -91 0 -7 10 -14 23 -18 16 -4 27 0
39 17 10 12 23 28 28 35 15 17 66 15 85 -5 13 -12 16 -27 12 -56 -5 -34 -19
-54 -101 -136 -53 -53 -96 -104 -96 -114 0 -15 14 -17 135 -17 l135 0 0 31 0
31 -84 -3 -84 -4 73 77 c87 90 106 135 84 194 -24 64 -104 91 -176 59z"/>
<path d="M10050 4713 c-51 -16 -90 -56 -90 -93 0 -21 52 -10 72 15 35 44 118
27 118 -25 0 -23 -36 -50 -67 -50 -18 0 -23 -6 -23 -25 0 -21 5 -25 28 -25 40
0 63 -20 64 -58 1 -43 -26 -72 -68 -72 -31 0 -74 30 -74 53 0 4 -12 7 -27 5
-40 -4 -40 -31 -1 -73 82 -88 238 -34 238 84 0 26 -8 42 -36 67 -22 21 -30 34
-20 34 22 0 46 40 46 75 0 65 -86 113 -160 88z"/>
<path d="M4235 4650 c-5 -31 -12 -41 -31 -46 -29 -8 -34 -44 -5 -44 17 0 19
-10 23 -101 3 -92 5 -103 27 -120 26 -21 56 -24 96 -9 21 8 24 13 16 27 -5 10
-21 17 -38 18 l-28 0 -3 93 -3 92 71 0 70 0 0 -120 0 -120 30 0 30 0 0 145 0
145 -100 0 -100 0 0 40 c0 36 -3 40 -24 40 -20 0 -25 -6 -31 -40z"/>
<path d="M2080 4466 l0 -146 35 0 35 0 0 93 c0 104 9 122 65 129 26 3 30 8 33
36 3 28 0 32 -22 32 -13 0 -38 -11 -55 -25 l-30 -26 -3 23 c-2 17 -11 24 -30
26 l-28 3 0 -145z"/>
<path d="M2365 4603 c-79 -21 -119 -124 -79 -208 30 -65 104 -89 180 -60 76
29 104 116 65 201 -26 57 -95 85 -166 67z m95 -63 c15 -15 20 -33 20 -75 0
-65 -22 -95 -70 -95 -48 0 -70 30 -70 95 0 65 22 95 70 95 17 0 39 -9 50 -20z"/>
<path d="M2610 4465 l0 -145 30 0 30 0 0 103 c0 115 10 137 63 137 38 0 47
-26 47 -139 l0 -101 30 0 30 0 0 103 c0 88 3 106 18 120 22 20 53 22 70 5 8
-8 12 -49 12 -120 l0 -108 35 0 35 0 0 108 c0 88 -3 113 -20 139 -27 44 -80
54 -133 25 -39 -22 -39 -22 -65 -2 -30 24 -60 25 -91 4 -22 -16 -24 -16 -33 0
-5 9 -20 16 -33 16 l-25 0 0 -145z"/>
<path d="M3600 4466 l0 -146 35 0 35 0 0 93 c0 104 9 122 65 129 26 3 30 8 33
36 3 28 0 32 -22 32 -13 0 -38 -11 -55 -25 l-30 -26 -3 23 c-2 17 -11 24 -30
26 l-28 3 0 -145z"/>
<path d="M3810 4465 l0 -145 35 0 35 0 0 145 0 145 -35 0 -35 0 0 -145z"/>
<path d="M3994 4596 c-37 -16 -55 -58 -42 -97 8 -24 62 -59 90 -59 6 0 20 -7
29 -16 43 -39 -23 -71 -86 -42 -22 10 -28 9 -36 -3 -14 -23 -11 -29 28 -46 77
-32 166 9 166 77 0 39 -16 56 -79 79 -39 15 -49 24 -49 42 0 20 6 25 32 27 18
2 41 -1 51 -7 13 -7 22 -7 30 1 19 19 14 28 -23 44 -42 17 -71 17 -111 0z"/>
<path d="M4570 4465 l0 -145 30 0 30 0 0 104 c0 97 2 106 22 120 32 22 64 20
82 -6 12 -17 16 -48 16 -120 l0 -98 31 0 31 0 -4 119 c-2 100 -6 122 -22 140
-27 29 -75 36 -121 17 -35 -15 -40 -15 -47 -1 -5 8 -18 15 -28 15 -19 0 -20
-8 -20 -145z"/>
<path d="M4943 4595 c-100 -43 -97 -219 4 -262 43 -18 113 -12 151 13 22 15
23 17 9 32 -13 13 -21 13 -42 4 -59 -27 -118 -5 -131 51 l-6 27 96 0 96 0 0
38 c0 47 -22 80 -66 98 -42 17 -70 17 -111 -1z m107 -55 c33 -33 24 -40 -50
-40 -40 0 -70 4 -70 10 0 21 41 50 70 50 17 0 39 -9 50 -20z"/>
<path d="M5661 4592 c-52 -26 -75 -63 -75 -120 0 -97 65 -158 158 -148 27 3
60 13 73 22 23 15 24 17 10 32 -13 13 -21 13 -42 4 -60 -27 -135 5 -135 58 0
19 6 20 95 20 l95 0 0 30 c0 46 -27 90 -65 106 -45 18 -73 18 -114 -4z m100
-42 c10 -6 19 -20 19 -30 0 -18 -7 -20 -65 -20 -69 0 -78 7 -45 40 22 22 60
26 91 10z"/>
<path d="M6690 4465 l0 -145 35 0 35 0 0 145 0 145 -35 0 -35 0 0 -145z"/>
<path d="M6840 4465 l0 -145 30 0 30 0 0 104 c0 97 2 106 22 120 32 22 64 20
82 -6 12 -17 16 -48 16 -120 l0 -98 31 0 31 0 -4 119 c-2 100 -6 122 -22 140
-27 29 -75 36 -121 17 -35 -15 -40 -15 -47 -1 -5 8 -18 15 -28 15 -19 0 -20
-8 -20 -145z"/>
<path d="M7213 4595 c-96 -41 -98 -211 -4 -260 17 -8 43 -15 58 -15 37 0 98
31 98 50 0 15 -7 16 -85 4 -28 -5 -40 -1 -55 16 -27 30 -28 119 -1 149 21 23
65 28 97 10 15 -7 24 -7 35 2 21 17 18 25 -20 43 -41 19 -80 20 -123 1z"/>
<path d="M7471 4592 c-116 -62 -80 -247 52 -269 49 -8 130 22 125 46 -4 17
-18 18 -91 5 -31 -5 -43 -2 -63 17 -13 12 -24 33 -24 45 0 22 4 23 93 26 86 3
92 4 95 25 5 36 -26 90 -63 107 -43 21 -83 20 -124 -2z m111 -49 c35 -32 23
-43 -47 -43 -69 0 -79 8 -48 42 20 22 70 23 95 1z"/>
<path d="M8090 4494 c0 -114 0 -116 29 -145 33 -33 70 -37 115 -14 36 19 46
19 46 0 0 -9 9 -15 25 -15 l25 0 0 145 0 145 -30 0 -30 0 0 -104 c0 -97 -2
-106 -22 -120 -31 -22 -75 -20 -88 3 -5 11 -10 65 -10 120 l0 101 -30 0 -30 0
0 -116z"/>
<path d="M8520 4604 c0 -3 25 -64 56 -134 l56 -128 -26 -50 c-14 -28 -26 -54
-26 -57 0 -4 14 -5 31 -3 29 3 33 9 110 188 43 101 79 186 79 188 0 2 -14 2
-32 0 -30 -3 -34 -8 -68 -96 l-36 -94 -40 94 c-37 88 -42 93 -72 96 -18 2 -32
0 -32 -4z"/>
<path d="M6030 4485 c0 -24 2 -25 70 -25 68 0 70 1 70 25 0 24 -2 25 -70 25
-68 0 -70 -1 -70 -25z"/>
</g>
</svg>
